<svg id="mapico.svg" xmlns="http://www.w3.org/2000/svg" width="8.188" height="11.437" viewBox="0 0 8.188 11.437">
  <defs>
    <style>
      .cls-1 {
        fill: #ffb600;
        fill-rule: evenodd;
      }
    </style>
  </defs>
  <path  id="Icon" class="cls-1" d="M209.627,866.72a4.091,4.091,0,0,0-4.09,4.091v0.01a3.1,3.1,0,0,0,.039.551,4.056,4.056,0,0,0,.241.926,22.672,22.672,0,0,0,3.809,5.853h0a22.6,22.6,0,0,0,3.809-5.852,4,4,0,0,0,.242-0.929,3.061,3.061,0,0,0,.039-0.548v-0.011A4.091,4.091,0,0,0,209.627,866.72Zm0,2.442h0a1.792,1.792,0,0,0,0,3.583h0A1.792,1.792,0,0,0,209.632,869.162Z" transform="translate(-205.531 -866.719)"/>
</svg>
